# xmcd
#
# Track frame offsets:
#	150
#	13409
#	25508
#	37641
# Disc length: 706 seconds
# Revision: 1
# Processed by: cddbd v1.5.2PL0 Copyright (c) Steve Scherf et al.
#
# Submitted via: libkcddb 0.31
#
DISCID=1f02c004
DTITLE=Dottor Bernetti e la Diabolica Blues Band - Dottor Bernetti e la Diabolica Blues Band
DYEAR=2007
DGENRE=Blues
TTITLE0=Built for comfort
TTITLE1=Everyday I have the blues
TTITLE2=Lookin' out the window
TTITLE3=I'm tore down
EXTD=
EXTT0=
EXTT1=
EXTT2=
EXTT3=
PLAYORDER=
